<svg width="11" height="10" viewBox="0 0 11 10" fill="none" xmlns="http://www.w3.org/2000/svg">
<path fill-rule="evenodd" clip-rule="evenodd" d="M10.3748 4.55084C10.5791 4.35772 10.6512 4.07658 10.563 3.81399C10.4745 3.55141 10.2446 3.36432 9.96084 3.32519L7.44301 2.97257C7.33524 2.95677 7.24283 2.89232 7.19493 2.79902L6.0693 0.600785C5.94304 0.353751 5.68584 0.200012 5.40027 0.200012C5.11444 0.200012 4.85828 0.353751 4.73099 0.600785L3.60536 2.79902C3.55746 2.89232 3.46504 2.95777 3.35727 2.97257L0.839442 3.32519C0.555692 3.36432 0.324787 3.55141 0.236538 3.81399C0.14907 4.07658 0.221179 4.35872 0.425531 4.55084L2.24778 6.26127C2.3251 6.33475 2.36076 6.43959 2.34228 6.54241L1.91223 8.95834C1.87474 9.17101 1.93253 9.37867 2.07493 9.54119C2.29776 9.796 2.68512 9.8735 2.99516 9.71574L5.24668 8.57537C5.34118 8.52722 5.4591 8.52822 5.5536 8.57537L7.80616 9.71574C7.91498 9.77142 8.03186 9.80001 8.15291 9.80001C8.37262 9.80001 8.58192 9.70596 8.72536 9.54119C8.86775 9.37867 8.9258 9.17101 8.88806 8.95834L8.45801 6.54241C8.43952 6.43959 8.47519 6.33475 8.5525 6.26127L10.3748 4.55084Z" fill="#D4D8D9"/>
</svg>
